<svg version="1.1" viewBox="0.0 0.0 960.7742782152231 100.63254593175853" fill="none" stroke="none" stroke-linecap="square" stroke-miterlimit="10" xmlns:xlink="http://www.w3.org/1999/xlink" xmlns="http://www.w3.org/2000/svg"><clipPath id="p.0"><path d="m0 0l960.7743 0l0 100.632545l-960.7743 0l0 -100.632545z" clip-rule="nonzero"/></clipPath><g clip-path="url(#p.0)"><path fill="#000000" fill-opacity="0.0" d="m0 0l960.7743 0l0 100.632545l-960.7743 0z" fill-rule="evenodd"/><path fill="#000000" fill-opacity="0.0" d="m-13.635171 -13.587927l1089.0078 0l0 120.0l-1089.0078 0z" fill-rule="evenodd"/><path fill="#ec4d35" d="m28.786705 98.73207l0 -81.96875l-29.359375 0l0 -14.96875l75.71875 0l0 14.96875l-29.359375 0l0 81.96875l-17.0 0zm102.31469 1.75q-21.515617 0 -35.546867 -14.09375q-14.015625 -14.109375 -14.015625 -36.04687q0 -22.093752 14.09375 -36.109375q14.109375 -14.03125 35.468742 -14.03125q21.515625 0 35.53125 14.09375q14.03125 14.09375 14.03125 36.046875q0 22.093746 -14.109375 36.124996q-14.09375 14.015625 -35.453125 14.015625zm0 -15.125q14.09375 0 23.09375 -9.734375q9.015625 -9.734375 9.015625 -25.281246q0 -15.703125 -9.078125 -25.359377q-9.078125 -9.671875 -23.03125 -9.671875q-14.093742 0 -23.109367 9.75q-9.015625 9.734377 -9.015625 25.281252q0 15.687496 9.078125 25.359371q9.09375 9.65625 23.046867 9.65625zm121.34784 13.375l-21.500015 -36.187496l-16.859375 0l0 36.187496l-17.015625 0l0 -96.9375l42.59375 0q14.093765 0 22.87503 8.359375q8.796875 8.359375 8.796875 22.015627q0 11.1875 -6.25 18.96875q-6.25 7.78125 -16.70314 9.515625l23.687515 38.07812l-19.625015 0zm-15.10939 -51.156246q7.2656403 0 11.906265 -4.203125q4.65625 -4.21875 4.65625 -11.203125q0 -6.968752 -4.65625 -11.187502q-4.640625 -4.21875 -11.906265 -4.21875l-23.25 0l0 30.812502l23.25 0zm97.51602 52.906246q-22.09375 0 -36.484375 -14.234375q-14.390625 -14.25 -14.390625 -35.906246q0 -21.796877 14.3125 -35.96875q14.328125 -14.171875 36.5625 -14.171875q25.140625 0 38.9375 21.796875l-14.53125 7.40625q-3.484375 -6.09375 -10.03125 -10.09375q-6.53125 -4.0 -14.375 -4.0q-14.53125 0 -23.984375 9.953125q-9.453125 9.953127 -9.453125 25.078127q0 15.109371 9.375 25.062496q9.375 9.953125 24.0625 9.953125q7.84375 0 14.375 -3.984375q6.546875 -4.0 10.03125 -10.109375l14.53125 7.40625q-13.796875 21.8125 -38.9375 21.8125zm120.03558 -1.75l0 -42.29687l-50.421875 0l0 42.29687l-17.015625 0l0 -96.9375l17.015625 0l0 39.671875l50.421875 0l0 -39.671875l17.0 0l0 96.9375l-17.0 0z" fill-rule="nonzero"/><path fill="#3f4651" d="m525.6667 100.48207q-24.99997 0 -39.390564 -15.40625l9.453125 -13.078125q12.6405945 13.359375 30.671814 13.359375q9.0 0 14.234375 -3.703125q5.234375 -3.703125 5.234375 -9.515625q0 -4.796875 -4.359375 -7.984375q-4.359375 -3.2031212 -13.515625 -5.390621q-18.453094 -4.359375 -25.140594 -7.984375q-6.6874695 -3.640625 -10.1093445 -9.078125q-3.40625 -5.453125 -3.40625 -13.015627q0 -12.203125 9.8749695 -20.265625q9.890625 -8.078125 25.43747 -8.078125q22.234375 0 36.328125 13.515625l-9.734375 12.640625q-11.046875 -11.03125 -28.046875 -11.03125q-7.5625 0 -11.9999695 3.265625q-4.421875 3.265625 -4.421875 8.796875q0 4.781252 5.5155945 7.625002q5.53125 2.828125 22.671875 7.046875q13.8125 3.484375 21.0 10.46875q7.203125 6.96875 7.203125 17.874996q0 13.65625 -9.890625 21.796875q-9.875 8.140625 -27.609375 8.140625zm120.621765 -1.75l0 -42.29687l-50.421875 0l0 42.29687l-17.015625 0l0 -96.9375l17.015625 0l0 39.671875l50.421875 0l0 -39.671875l17.0 0l0 96.9375l-17.0 0zm105.509705 0l-7.125 -18.609375l-44.46875 0l-7.125 18.609375l-19.328125 0l38.078125 -96.9375l21.21875 0l38.078125 96.9375l-19.328125 0zm-29.359375 -79.78125l-17.4375 46.203125l34.875 0l-17.4375 -46.203125zm114.66516 79.78125l-21.5 -36.187496l-16.859375 0l0 36.187496l-17.015625 0l0 -96.9375l42.59375 0q14.09375 0 22.875 8.359375q8.796875 8.359375 8.796875 22.015627q0 11.1875 -6.25 18.96875q-6.25 7.78125 -16.703125 9.515625l23.6875 38.07812l-19.625 0zm-15.109375 -51.156246q7.265625 0 11.90625 -4.203125q4.65625 -4.21875 4.65625 -11.203125q0 -6.968752 -4.65625 -11.187502q-4.640625 -4.21875 -11.90625 -4.21875l-23.25 0l0 30.812502l23.25 0zm51.000366 51.156246l0 -96.9375l36.046875 0q22.8125 0 36.765625 13.671875q13.953125 13.65625 13.953125 34.875q0 21.218746 -13.953125 34.812496q-13.953125 13.578125 -36.765625 13.578125l-36.046875 0zm36.046875 -14.96875q15.265625 0 24.265625 -9.4375q9.015625 -9.453125 9.015625 -23.984371q0 -15.125 -9.09375 -24.343752q-9.078125 -9.234375 -24.1875 -9.234375l-19.03125 0l0 67.0l19.03125 0z" fill-rule="nonzero"/></g></svg>